<svg height="18" width="18" xmlns="http://www.w3.org/2000/svg"><g fill="none" fill-rule="evenodd"><path d="m0 0h18v18h-18z"/><path d="m3.2765961.00034226c3.0676659.09785934 6.6733809 3.07188394 9.15694343 5.548738 2.48356254 2.47685405 5.4658595 6.07177934 5.56358447 9.14478814 0 1.1000741-2.61386252 2.9908969-2.64082114 3.008894-.7110335.4971705-1.4917101.3149497-1.80959713-.1372281-.19320342-.2744561-2.19712724-3.2811005-2.42290565-3.6489167-.09884826-.1608492-.14714912-.3554431-.14714912-.5702838 0-.2744561.07975258-.5770327.23701117-.8751101.1527655-.2902036.65262318-1.1664385.89862055-1.594995-.2673396-.3768148-.94804468-1.26429792-2.351016-2.66357424-1.39173858-1.39027776-2.28923588-2.07641806-2.67002628-2.34187563-.4302146.2452108-1.3086162.74238132-1.5972981.89423205-.5447887.28682915-1.0907006.31944893-1.4568885.08661115-.3459689-.2182151-3.3383754-2.21027167-3.6225641-2.41611376-.2695862-.19234427-.4144887-.5399137-.4144887-.91672847 0-.29695252.089862-.61190217.2808189-.88523348.0190957-.02699568 1.9039523-2.6680735 2.9957762-2.63320406z" fill="#202020"/></g></svg>